<svg xmlns="http://www.w3.org/2000/svg" width="100" height="100" viewBox="0 0 48 48"><linearGradient id="a" x1="9.858" x2="38.142" y1="9.858" y2="38.142" gradientUnits="userSpaceOnUse"><stop offset="0" stop-color="#9dffce"/><stop offset="1" stop-color="#50d18d"/></linearGradient><path fill="url(#a)" d="M44 24c0 11.045-8.955 20-20 20S4 35.045 4 24 12.955 4 24 4s20 8.955 20 20"/><linearGradient id="b" x1="13" x2="36" y1="24.793" y2="24.793" gradientUnits="userSpaceOnUse"><stop offset=".824" stop-color="#135d36"/><stop offset=".931" stop-color="#125933"/><stop offset="1" stop-color="#11522f"/></linearGradient><path fill="url(#b)" d="m21.293 32.707-8-8a1 1 0 0 1 0-1.414l1.414-1.414a1 1 0 0 1 1.414 0L22 27.758l10.879-10.879a1 1 0 0 1 1.414 0l1.414 1.414a1 1 0 0 1 0 1.414l-13 13a1 1 0 0 1-1.414 0"/></svg>